<svg xmlns="http://www.w3.org/2000/svg" width="336.71" height="73.59" viewBox="0 0 336.71 73.59"><defs><style>.a,.b{fill:#fff;}.a{fill-rule:evenodd;}</style></defs><title>logo</title><polygon class="a" points="0 7.51 0 17.62 4.34 17.62 4.34 41.34 0 41.34 0 51.12 21.81 51.12 21.81 41.34 17.18 41.34 17.18 22.3 24.8 42.4 31.15 42.4 38.99 22.3 38.99 41.34 34.46 41.34 34.46 51.12 56.08 51.12 56.08 41.34 51.74 41.34 51.74 17.62 56.08 17.62 56.08 7.51 34.46 7.51 28.16 22.3 21.81 7.51 0 7.51"/><path class="a" d="M278.92,425.49v-7.36a5.31,5.31,0,0,0-4-5.36s1.94-.75,4.36-4,2.07-8.69-1.09-12.88-10.49-4.26-10.49-4.26H240.55v10.11h4.34v7.35H227.13l-1.76-7.35h3.89V391.66H196.78v10.11h3.73l-7.64,23.72h-3.73v9.78h21.05v-9.78h-4.47l2.55-8.11h36.62v8.11h-4.34v9.78H261.6v-9.78h-3.49v-8.11h3.49c5.24,0,4.35,4.78,4.35,4.78v13.11h17v-9.78Zm-68.73-13.26,2.75-10.46L216,412.23Zm52.74-3.06h-4.82v-7.4h5.75a3.64,3.64,0,0,1,3.15,3.85C267,409.06,262.93,409.17,262.93,409.17Z" transform="translate(-129.28 -384.15)"/><polygon class="a" points="100.13 35.87 89.47 35.87 96.06 64.24 190.01 64.24 190.01 54.43 104.34 54.43 100.13 35.87"/><path class="a" d="M320.45,417.38a11,11,0,1,1-.06-7.85H333V391.66H321.15v1.71a25.79,25.79,0,0,0-11.08-2.47c-13.48,0-24.41,10.14-24.41,22.64s10.93,22.63,24.41,22.63c12.06,0,22.08-8.12,24-18.79Z" transform="translate(-129.28 -384.15)"/><polygon class="a" points="230.76 17.62 230.76 7.51 208.47 7.51 208.47 17.62 213.01 17.62 213.01 41.34 208.47 41.34 208.47 51.12 230.76 51.12 230.76 41.34 226.13 41.34 226.13 17.62 230.76 17.62"/><rect class="b" x="285.98" width="7.87" height="14.64"/><path class="a" d="M388.61,391.66v10.11h4.7v17.71c0,3.34-2.69,4.83-6.15,4.83s-6.19-1.22-6.19-4.9h0V401.77h4.63V391.66H363.31v10.11h4.53v20.12s.08.73.08,1.1c0,7.39,8.45,13.38,18.87,13.38s19.62-6,19.62-13.36c0-.37,0-1.12,0-1.12V401.77h4.27V391.66Z" transform="translate(-129.28 -384.15)"/><path class="a" d="M447.1,398.93c-3.34-.53-6.67,1.13-6.34,3.95.25,2.16,2,3.85,6.69,4.22,7.45.6,11.67,2.43,14.05,4.32s5,5.27,4.41,11.39-3.67,9.47-6.53,11.15c-2.63,2-7.5,3.54-14.58,1.5-1.67-.48-5.41-2-6.15-3.92v3.8H427.22V419.85h11.19a11.26,11.26,0,0,0,2.92,4.42c3.21,2.83,8.38,4.6,11.57,2.1,2.5-2,2.26-4.8-.5-6.2-2.19-1.11-5.41-1.42-7.85-1.59-4.57-.33-11.3-2-14.15-5.35a15.05,15.05,0,0,1-3.07-10.71,14.5,14.5,0,0,1,7.49-10.28c3.75-1.92,8.66-1.66,10.84-1.26,4,.51,9.06,4,8.7,4l0-3.29h8.84V406h-8.54C453.78,403.7,452.2,399.74,447.1,398.93Z" transform="translate(-129.28 -384.15)"/><polygon class="a" points="192.26 73.59 192.26 69.59 193.62 69.66 193.62 58.76 192.26 58.83 192.26 54.83 198.48 54.83 203.1 63.06 207.73 54.83 213.99 54.83 213.99 58.83 212.62 58.76 212.62 69.66 213.99 69.59 213.99 73.59 207.63 73.59 207.63 63.69 203.12 71.5 198.62 63.69 198.62 73.59 192.26 73.59"/><path class="a" d="M354.51,442.55l1.22,7.36h-2.37l1.15-7.36Zm-2.11,15.19.62-4.59h3l.64,4.59H363v-4l-1.38.07-3-14.83H350.3l-2.89,14.83-1.38-.07v4Z" transform="translate(-129.28 -384.15)"/><path class="a" d="M379.34,446.46v11.28h-9a5,5,0,0,1-3.37-.93,3.82,3.82,0,0,1-1.05-3V443.49c0-1.69.38-2.87,1.14-3.53a4.87,4.87,0,0,1,3.27-1h8.77v5.45h-4.81v-1.52h-3.12v10.9h3.12v-3.59h-1.62v-3.76Z" transform="translate(-129.28 -384.15)"/><path class="a" d="M390.76,442.55l1.22,7.36h-2.37l1.15-7.36Zm-2.11,15.19.62-4.59h3l.64,4.59h6.33v-4l-1.38.07-3-14.83h-8.36l-2.89,14.83-1.38-.07v4Z" transform="translate(-129.28 -384.15)"/><polygon class="a" points="272.33 73.59 272.33 69.7 279.48 58.76 276.72 58.76 276.72 60.14 272.55 60.14 272.55 54.83 285.6 54.83 285.6 58.53 278.38 69.66 281.6 69.66 281.6 67.69 285.81 67.69 285.81 73.59 272.33 73.59"/><polygon class="a" points="288.42 73.59 288.42 69.59 289.82 69.66 289.82 58.76 288.42 58.83 288.42 54.83 296.28 54.83 296.28 58.83 295.06 58.76 295.06 69.66 296.28 69.59 296.28 73.59 288.42 73.59"/><polygon class="a" points="299.28 73.59 299.28 69.59 300.64 69.66 300.64 58.76 299.28 58.83 299.28 54.83 305.56 54.83 310.38 64.07 310.38 54.83 316.66 54.83 316.66 58.83 315.26 58.76 315.26 69.66 316.66 69.59 316.66 73.59 310.4 73.59 305.6 64.38 305.6 73.59 299.28 73.59"/><polygon class="a" points="319.64 73.59 319.64 69.59 321.01 69.66 321.01 58.76 319.64 58.84 319.64 54.83 333.72 54.83 333.72 60.83 329.23 60.83 329.23 58.76 326.25 58.76 326.25 62.35 330.38 62.35 330.38 65.73 326.25 65.73 326.25 69.66 329.23 69.66 329.23 67.25 333.9 67.25 333.9 73.59 319.64 73.59"/></svg>